<?xml version="1.0" encoding="UTF-8"?>
<svg version="1.1" viewBox="0 0 1200 1200"
    xmlns="http://www.w3.org/2000/svg">
    <g>
        <path d="m615.39 92.281c-256.4 0-465 208.61-465 465.01 0 88.789 25.117 174.93 72.695 249.53l-75.324 197.88c-1.8711 4.9062-0.60156 10.441 3.2148 14.039 2.4609 2.3281 5.6641 3.5508 8.9023 3.5508 1.7891 0 3.6016-0.35937 5.3047-1.1289l184.33-82.5c78.289 54.742 170.06 83.629 265.88 83.629 256.41 0 465.01-208.61 465.01-465-0.007812-256.4-208.6-465.01-465.02-465.01zm0 861.41c-83.797 0-163.97-25.922-231.83-74.977-9.5508-6.8867-20.82-10.535-32.578-10.535-7.8945 0-15.539 1.6328-22.715 4.8477l-68.652 30.73 29.93-78.672c6.3711-16.668 4.3086-35.484-5.4961-50.352-42.527-64.668-65.016-139.85-65.016-217.44 0-105.7 41.27-205.19 116.23-280.15 74.953-74.965 174.46-116.24 280.15-116.24 218.58 0 396.39 177.83 396.39 396.39-0.023437 218.57-177.84 396.4-396.42 396.4z"/>
        <path d="m579.83 473.62h-137.11v55.02h125.86v45h-125.86v66.625h143.44v46.57h-196.34v-259.09h190.02z"/>
        <path d="m627.47 427.74h56.746l102.86 180.66v-180.66h50.438v259.09h-54.121l-105.49-183.84v183.84h-50.438z"/>
    </g>
</svg>
