<?xml version="1.0" encoding="UTF-8"?>
<svg width="1200pt" height="1200pt" version="1.1" viewBox="0 0 1200 1200" xmlns="http://www.w3.org/2000/svg">
 <g>
  <path d="m609.82 114.06c-256.4 0-465 208.61-465 465.01 0 88.789 25.117 174.93 72.695 249.53l-75.324 197.88c-1.8711 4.9062-0.60156 10.441 3.2148 14.039 2.4609 2.3281 5.6641 3.5508 8.9023 3.5508 1.7891 0 3.6016-0.35938 5.3047-1.1289l184.33-82.5c78.289 54.742 170.06 83.629 265.87 83.629 256.41 0 465.01-208.61 465.01-465 0.003906-256.4-208.58-465.01-465.01-465.01zm0 861.41c-83.785 0-163.96-25.922-231.83-74.977-9.5508-6.8867-20.82-10.535-32.578-10.535-7.8945 0-15.539 1.6328-22.715 4.8477l-68.652 30.73 29.93-78.672c6.3711-16.668 4.3086-35.484-5.4961-50.352-42.527-64.668-65.016-139.85-65.016-217.44 0-105.7 41.27-205.19 116.23-280.15 74.953-74.965 174.46-116.24 280.14-116.24 218.58 0 396.39 177.83 396.39 396.39-0.003906 218.58-177.83 396.4-396.41 396.4z"/>
  <path d="m440.65 595.86h125.86v-45h-125.86v-55.02h137.11v-45.875h-190.02v259.1h196.35v-46.582h-143.44z"/>
  <path d="m805.26 580.39c-9.9609-7.8477-24.887-14.125-44.809-18.805l-45.469-10.727c-17.555-4.1055-29.016-7.6797-34.43-10.727-8.3984-4.5703-12.613-11.484-12.613-20.746 0-10.078 4.2617-17.93 12.793-23.555 8.5312-5.6289 19.945-8.4375 34.246-8.4375 12.84 0 23.605 2.1719 32.258 6.5039 12.961 6.5625 19.945 17.641 20.902 33.227h52.031c-0.96094-27.539-11.184-48.539-30.707-63.012-19.523-14.473-43.105-21.707-70.738-21.707-33.098 0-58.176 7.6797-75.254 23.027-17.074 15.348-25.633 34.633-25.633 57.828 0 25.43 8.7344 44.125 26.195 56.074 10.309 7.1523 29.258 13.766 56.809 19.859l28.055 6.1562c16.43 3.5156 28.402 7.5586 35.977 12.133 7.5469 4.6914 11.34 11.305 11.34 19.859 0 14.652-7.7383 24.672-23.16 30.059-8.1367 2.8086-18.73 4.2227-31.777 4.2227-21.77 0-37.141-5.3281-46.105-15.996-4.9062-5.8555-8.207-14.711-9.875-26.543h-51.684c0 26.953 9.7578 48.133 29.305 63.551 19.547 15.395 46.379 23.113 80.484 23.113 33.395 0 59.258-7.8242 77.555-23.461 18.301-15.66 27.445-35.305 27.445-58.98 0.019531-23.086-7.6875-40.723-23.141-52.918z"/>
 </g>
</svg>
