<?xml version="1.0" encoding="UTF-8"?>
<svg width="1200pt" height="1200pt" version="1.1" viewBox="0 0 1200 1200" xmlns="http://www.w3.org/2000/svg">
 <g>
  <path d="m594.74 124.29c-256.4 0-465 208.61-465 465.01 0 88.789 25.117 174.93 72.695 249.53l-75.324 197.88c-1.8711 4.9062-0.60156 10.441 3.2148 14.039 2.4609 2.3281 5.6641 3.5508 8.9023 3.5508 1.7891 0 3.6016-0.35938 5.3047-1.1289l184.33-82.5c78.289 54.742 170.06 83.629 265.88 83.629 256.41 0 465.01-208.61 465.01-465-0.019531-256.4-208.6-465.01-465.02-465.01zm0 861.42c-83.797 0-163.97-25.922-231.83-74.977-9.5508-6.8867-20.82-10.535-32.578-10.535-7.8945 0-15.539 1.6328-22.715 4.8477l-68.652 30.73 29.93-78.672c6.3711-16.668 4.3086-35.484-5.4961-50.352-42.527-64.668-65.016-139.85-65.016-217.44 0-105.71 41.27-205.2 116.23-280.16 74.953-74.965 174.46-116.24 280.15-116.24 218.58 0 396.39 177.83 396.39 396.39 0 218.57-177.85 396.41-396.42 396.41z"/>
  <path d="m376.88 460.09h184.75v45.527h-130.97v59.594h114.78v45h-114.78v108.64h-53.785z"/>
  <path d="m762.83 466.43c9.5391 4.1055 17.629 10.141 24.254 18.109 5.4844 6.5625 9.8164 13.824 13.008 21.793 3.2148 7.9688 4.8008 17.051 4.8008 27.254 0 12.301-3.0977 24.406-9.3008 36.301-6.2031 11.891-16.477 20.293-30.77 25.223 11.953 4.8008 20.41 11.629 25.402 20.484 4.9688 8.8438 7.4766 22.355 7.4766 40.523v17.398c0 11.832 0.46875 19.859 1.4297 24.086 1.4297 6.6836 4.7539 11.605 9.9844 14.762v6.5039h-59.762c-1.6445-5.7461-2.8086-10.367-3.5156-13.883-1.4023-7.2617-2.1602-14.711-2.2695-22.32l-0.34766-24.086c-0.23828-16.523-3.0977-27.539-8.5781-33.047-5.4844-5.5078-15.77-8.2578-30.84-8.2578h-52.871v101.61h-52.906l-0.003907-259.14h123.93c17.711 0.35156 31.344 2.582 40.883 6.6875zm-111.91 38.312v69.613h58.262c11.578 0 20.258-1.4023 26.039-4.2227 10.246-4.9219 15.371-14.652 15.371-29.184 0-15.707-4.9688-26.258-14.855-31.645-5.5781-3.0469-13.922-4.5703-25.055-4.5703l-59.762-0.003906z"/>
 </g>
</svg>
