<svg xmlns="http://www.w3.org/2000/svg" id="Artwork" viewBox="0 0 500 500">
	<defs>
		<style>
			.cls-1{fill:#a1aeb6;}
		</style>
	</defs>
	<title>
		omSupply_Icon
	</title>
	<g transform="matrix(0.6 0 0 0.6 275 150)">
		<path class="cls-1" d="M250,404.45a15.47,15.47,0,1,0,15.46,15.47A15.31,15.31,0,0,0,250,404.45Zm0,22.66a7.19,7.19,0,1,1,7.19-7.19A7.2,7.2,0,0,1,250,427.11Z" />
		<path class="cls-1" d="M233.81,76.13h32.37a4.14,4.14,0,1,0,0-8.27H233.81a4.14,4.14,0,0,0,0,8.27Z" />
		<path class="cls-1" d="M351.23,88.18a36.54,36.54,0,0,0-36.5-36.5H185.27a36.54,36.54,0,0,0-36.5,36.5V411.82a36.54,36.54,0,0,0,36.5,36.5H314.73a36.54,36.54,0,0,0,36.5-36.5Zm-193.85-5A28.35,28.35,0,0,1,185.27,60H314.73a28.37,28.37,0,0,1,27.89,23.24l.17.86H157.21ZM343,411.82a28.26,28.26,0,0,1-28.22,28.23H185.27A28.27,28.27,0,0,1,157,411.82v-12H343Zm0-20.31H157V92.32H343Z" />
		<path class="cls-1" d="M307.59,276.08H245a4.7,4.7,0,0,0,0,9.39h62.61a4.7,4.7,0,1,0,0-9.39Z" />
		<path class="cls-1" d="M288.92,294H245a4.7,4.7,0,0,0,0,9.4h43.94a4.7,4.7,0,0,0,0-9.4Z" />
		<path class="cls-1" d="M224.31,275.94a4.68,4.68,0,0,0-3.44-1.5,4.63,4.63,0,0,0-3.19,1.27l-16.41,16.41-5.64-5.6a4.7,4.7,0,0,0-6.64,6.61l12.24,12.19,23.1-23A4.72,4.72,0,0,0,224.31,275.94Z" />
		<path class="cls-1" d="M307.59,325.68H245a4.7,4.7,0,0,0,0,9.4h62.61a4.7,4.7,0,1,0,0-9.4Z" />
		<path class="cls-1" d="M288.92,343.6H245a4.7,4.7,0,0,0,0,9.39h43.94a4.7,4.7,0,1,0,0-9.39Z" />
		<path class="cls-1" d="M224.28,325.44a4.85,4.85,0,0,0-6.64-.24l-16.41,16.41L195.6,336a4.72,4.72,0,0,0-3.19-1.24,4.7,4.7,0,0,0-3.44,7.9l12.26,12.25,23.07-23.1A4.72,4.72,0,0,0,224.28,325.44Z" />
		<path class="cls-1" d="M321.33,168.73c-3.72-9.66-11.27-20.48-21.25-30.46-14.69-14.69-31-23.82-42.49-23.82-4.37,0-7.87,1.29-10.41,3.82l-15.34,15.34c-7.25,7.25-4.1,22.14,8.17,39-1.85-.08-3.49-.12-5.06-.12-29.39,0-51.55,10-51.55,23.27V217.5c0,13.26,22.16,23.26,51.55,23.26s51.54-10,51.54-23.26v-8.44a29.75,29.75,0,0,0,7.93,1.25c4.32,0,7.79-1.28,10.32-3.81l15.34-15.34C324.69,186.56,325.13,178.59,321.33,168.73Zm-34.84,33v-5.92c0-10.87-14.54-19.64-37.06-22.39-13.39-16.34-17-30.54-12.64-34.86l6.8-6.81c1.41,11.33,10.11,25.92,23.6,39.41s28.07,22.19,39.4,23.61l-6.8,6.79C297.55,203.79,292.68,203.86,286.49,201.73Zm-34.35-78.51c1.14-1.16,2.94-1.74,5.36-1.74a27.39,27.39,0,0,1,9.34,2.06l24,57.6a101.17,101.17,0,0,1-18.73-14.92c-8.66-8.67-15.42-18.16-19-26.73C249.88,131.91,249.53,125.83,252.14,123.22Zm63,63c-2.37,2.37-7.89,2.24-14.71-.36l-24-57.55a100.41,100.41,0,0,1,18.72,14.9c8.67,8.67,15.43,18.16,19.05,26.73C317.38,177.53,317.74,183.61,315.13,186.22ZM235,212.07c-25.5,0-44.55-8.59-44.55-16.26,0-3.43,3.88-7.12,10.65-10.16l57.69,23.73A100.82,100.82,0,0,1,235,212.07Zm44.54-4.19v9.62c0,3.69-4.55,7.74-12.18,10.84-8.61,3.5-20.11,5.43-32.36,5.43s-23.75-1.93-32.37-5.43c-7.63-3.1-12.18-7.15-12.18-10.84v-9.62c9,7,25.47,11.18,44.55,11.18S270.49,214.9,279.49,207.88ZM268.84,206l-57.69-23.73a100.79,100.79,0,0,1,23.8-2.69c12.25,0,23.75,1.92,32.36,5.42,7.63,3.1,12.18,7.16,12.18,10.85C279.49,199.23,275.62,202.92,268.84,206Z" />
	</g>
	<g transform="matrix(0.79 0 0 0.79 0 0)">
		<path class="cls-1" d="M437.78,89.31a27.29,27.29,0,0,0-27.25-27.25H89.47A27.28,27.28,0,0,0,62.22,89.31V332.89a22.87,22.87,0,0,0,22.85,22.84H201l0,.72c-1.51,25.06-19.59,39.2-23.2,41.78l-.17.13H138.82a26.4,26.4,0,0,0-26.37,26.38v9.16a4,4,0,0,0,4,4h267a4,4,0,0,0,4-4v-9.16a26.4,26.4,0,0,0-26.38-26.38H322.38l-.18-.13c-3.61-2.6-21.67-16.84-23.21-41.78l0-.72h116a22.87,22.87,0,0,0,22.85-22.84ZM361.17,406.43a18.32,18.32,0,0,1,18.3,18.31v5.12h-259v-5.12a18.32,18.32,0,0,1,18.3-18.31Zm-52.28-9.22,1.1,1.15H190l1.1-1.15a63.45,63.45,0,0,0,18-40.83l0-.65h81.77l0,.65A63.48,63.48,0,0,0,308.89,397.21Zm120.82-64.32a14.79,14.79,0,0,1-14.78,14.77H85.07a14.79,14.79,0,0,1-14.78-14.77V303.16H429.71Zm0-37.8H70.29V89.31A19.2,19.2,0,0,1,89.47,70.14H410.53a19.2,19.2,0,0,1,19.18,19.17Z" />
		<g transform="matrix(0.79 0 0 0.79 50 0)">
			<path class="cls-1" d="M321.33,168.73c-3.72-9.66-11.27-20.48-21.25-30.46-14.69-14.69-31-23.82-42.49-23.82-4.37,0-7.87,1.29-10.41,3.82l-15.34,15.34c-7.25,7.25-4.1,22.14,8.17,39-1.85-.08-3.49-.12-5.06-.12-29.39,0-51.55,10-51.55,23.27V217.5c0,13.26,22.16,23.26,51.55,23.26s51.54-10,51.54-23.26v-8.44a29.75,29.75,0,0,0,7.93,1.25c4.32,0,7.79-1.28,10.32-3.81l15.34-15.34C324.69,186.56,325.13,178.59,321.33,168.73Zm-34.84,33v-5.92c0-10.87-14.54-19.64-37.06-22.39-13.39-16.34-17-30.54-12.64-34.86l6.8-6.81c1.41,11.33,10.11,25.92,23.6,39.41s28.07,22.19,39.4,23.61l-6.8,6.79C297.55,203.79,292.68,203.86,286.49,201.73Zm-34.35-78.51c1.14-1.16,2.94-1.74,5.36-1.74a27.39,27.39,0,0,1,9.34,2.06l24,57.6a101.17,101.17,0,0,1-18.73-14.92c-8.66-8.67-15.42-18.16-19-26.73C249.88,131.91,249.53,125.83,252.14,123.22Zm63,63c-2.37,2.37-7.89,2.24-14.71-.36l-24-57.55a100.41,100.41,0,0,1,18.72,14.9c8.67,8.67,15.43,18.16,19.05,26.73C317.38,177.53,317.74,183.61,315.13,186.22ZM235,212.07c-25.5,0-44.55-8.59-44.55-16.26,0-3.43,3.88-7.12,10.65-10.16l57.69,23.73A100.82,100.82,0,0,1,235,212.07Zm44.54-4.19v9.62c0,3.69-4.55,7.74-12.18,10.84-8.61,3.5-20.11,5.43-32.36,5.43s-23.75-1.93-32.37-5.43c-7.63-3.1-12.18-7.15-12.18-10.84v-9.62c9,7,25.47,11.18,44.55,11.18S270.49,214.9,279.49,207.88ZM268.84,206l-57.69-23.73a100.79,100.79,0,0,1,23.8-2.69c12.25,0,23.75,1.92,32.36,5.42,7.63,3.1,12.18,7.16,12.18,10.85C279.49,199.23,275.62,202.92,268.84,206Z" />
			<path class="cls-1" d="M307.59,276.08H245a4.7,4.7,0,0,0,0,9.39h62.61a4.7,4.7,0,1,0,0-9.39Z" />
			<path class="cls-1" d="M288.92,294H245a4.7,4.7,0,0,0,0,9.4h43.94a4.7,4.7,0,0,0,0-9.4Z" />
			<path class="cls-1" d="M224.31,275.94a4.68,4.68,0,0,0-3.44-1.5,4.63,4.63,0,0,0-3.19,1.27l-16.41,16.41-5.64-5.6a4.7,4.7,0,0,0-6.64,6.61l12.24,12.19,23.1-23A4.72,4.72,0,0,0,224.31,275.94Z" />
			<path class="cls-1" d="M307.59,325.68H245a4.7,4.7,0,0,0,0,9.4h62.61a4.7,4.7,0,1,0,0-9.4Z" />
			<path class="cls-1" d="M288.92,343.6H245a4.7,4.7,0,0,0,0,9.39h43.94a4.7,4.7,0,1,0,0-9.39Z" />
			<path class="cls-1" d="M224.28,325.44a4.85,4.85,0,0,0-6.64-.24l-16.41,16.41L195.6,336a4.72,4.72,0,0,0-3.19-1.24,4.7,4.7,0,0,0-3.44,7.9l12.26,12.25,23.07-23.1A4.72,4.72,0,0,0,224.28,325.44Z" />
		</g>
	</g>
	<a xmlns="http://www.w3.org/2000/svg" xmlns:xlink="http://www.w3.org/1999/xlink" id="anchor" xlink:href="https://msupply.foundation/projects/omsupply" target="_top">
		<rect x="0" y="0" width="100%" height="100%" fill-opacity="0" />
	</a>
</svg>
