<?xml version="1.0"?>
<svg xmlns="http://www.w3.org/2000/svg"
    xmlns:svg="http://www.w3.org/2000/svg" version="1.1" viewBox="0 0 1200 1200">
    <g>
        <text font-family="Sans-serif" font-size="360" font-weight="700" text-anchor="middle" x="51%" xml:space="preserve" y="57.2%">RU</text>
        <path d="m615.39,92.28c-256.4,0 -465,208.61 -465,465.01c0,88.79 25.12,174.93 72.69,249.53l-75.32,197.88c-1.87,4.91 -0.6,10.44 3.22,14.04c2.46,2.33 5.66,3.55 8.9,3.55c1.79,0 3.6,-0.36 5.3,-1.13l184.33,-82.5c78.29,54.74 170.06,83.63 265.88,83.63c256.41,0 465.01,-208.61 465.01,-465c-0.01,-256.4 -208.6,-465.01 -465.02,-465.01l0.01,0zm0,861.41c-83.8,0 -163.97,-25.92 -231.83,-74.98c-9.55,-6.88 -20.82,-10.53 -32.58,-10.53c-7.89,0 -15.54,1.63 -22.71,4.85l-68.65,30.73l29.93,-78.68c6.37,-16.66 4.3,-35.48 -5.5,-50.35c-42.53,-64.67 -65.02,-139.85 -65.02,-217.44c0,-105.7 41.27,-205.19 116.23,-280.15c74.96,-74.96 174.46,-116.24 280.15,-116.24c218.58,0 396.39,177.83 396.39,396.39c-0.02,218.57 -177.84,396.4 -396.42,396.4l0.01,0z" />
    </g>
</svg>