<?xml version="1.0" encoding="UTF-8" standalone="no"?>
<!DOCTYPE svg PUBLIC "-//W3C//DTD SVG 1.1//EN" "http://www.w3.org/Graphics/SVG/1.1/DTD/svg11.dtd">
<!--Generated by Intaglio, www.PurgatoryDesign.com-->
<svg version="1.1" viewBox="229,276,129,161" width="129" height="161" xmlns="http://www.w3.org/2000/svg" xmlns:xlink="http://www.w3.org/1999/xlink"><path fill="#d84829" d="M326.278,319.011 L345.167,319.011 L345.167,331.65 L357.415,331.65 L357.415,349.335 L345.167,349.335 L345.167,361.974 L326.278,361.974 L326.278,349.335 L314.03,349.335 L314.03,331.65 L326.278,331.65 L326.278,319.011 Z"/><path fill="#141413" stroke="#fffffe" d="M288.667,346.113 L287.553,346.564 L290.664,346.523 C291.564,346.855,292.244,347.374,292.244,347.374 C298.326,353.171,303.072,360.798,305.842,368.358 C298.939,380.241,292.172,386.082,285.006,383.042 C279.263,380.557,279.833,374.466,282.562,371.901 L258.485,367.362 L257.982,368.578 L264.68,370.222 L263.012,371.281 L276.241,374.838 C276.072,375.605,276.173,375.903,276.218,376.75 L261.154,380.308 L262.733,381.366 L277.008,380.406 C277.328,381.168,277.717,381.518,278.259,382.213 L270.199,388.372 L270.766,389.56 L274.496,387.285 L274.681,388.045 L280.626,384.398 C281.276,384.832,282.001,385.227,282.815,385.552 L279.509,391.604 L280.51,392.458 L286.013,386.407 C287.091,386.562,288,386.617,288.872,386.601 L288.337,390.296 L290.001,389.397 L291.304,386.349 C297.338,385.138,301.454,379.71,306.619,370.639 C307.031,370.251,307.799,368.581,308.078,368.036 L310.518,376.148 L311.513,375.178 C311.513,375.178,311.181,374.395,311.239,374.313 C312.771,372.683,311.771,371.212,313.226,370.83 C328.612,368.499,333.862,376.972,350.601,367.501 C352.577,366.134,354.695,368.138,354.695,368.138 C354.695,368.138,353.424,368.684,350.331,371.868 C342.566,379.289,325.566,381.131,314.717,386.321 L317.364,392.685 C314.382,396.163,310.971,399.416,307.287,402.329 C306.558,406.1,304.176,412.89,302.408,416.337 C336.12,428.675,303.642,433.777,314.03,432 L241.719,433.189 L242.6,433.408 L243.233,434.646 L246.573,416.175 C246.573,416.175,241.958,413.299,237.59,407.805 C254.53,422.991,289.516,420.453,302.794,404.574 C302.794,404.574,304.665,400.617,305.497,392.279 C299.366,404.705,283.965,412.14,268.604,413.453 L269.983,414.773 C253.494,415.331,239.282,410.272,232.716,399.831 C231.061,396.104,229.945,391.769,229.945,386.857 C229.945,380.753,231.489,375.279,233.977,370.495 L230.977,370.872 C230.977,370.872,238.59,354.883,256.089,350.612 L257.439,346.276 C256.094,345.324,254.982,344.23,254.195,343.107 C253.983,342.767,253.48,341.562,253.48,341.562 L253.133,343.303 C250.197,338.009,250.459,331.141,250.459,331.141 C249.999,331.375,248.711,334.754,248.711,334.754 L244.026,328.388 L243.524,330.383 L234.141,320.417 C237.12,298.064,265.665,299.214,275.044,293.631 L271.182,292.22 C277.55,288.442,289.112,285.332,295.218,277.406 C297.133,275.282,298.108,279.335,298.365,281.136 C297.402,289.996,294.017,296.542,293.553,300.937 C298.548,301.08,299.82,300.803,301.598,300.547 C303.867,300.287,306.694,299.18,306.694,299.18 C307.589,298.901,307.385,300.192,307.152,300.774 C301.769,304.616,296.131,310.14,296.131,310.14 L297.316,310.626 L305.008,321.583 L301.99,324.482 L296.975,342.834 Z"/><path fill="#141413" stroke="#fffffe" d="M282.556,300.279 C278.247,301.032,275.703,303.541,272.326,307.235 L273.445,307.494 C273.445,307.494,271.616,309.234,271.419,309.451 C268.368,312.801,264.157,316.624,257.906,321.22 L258.792,322.183 C271.535,312.771,276.933,305.976,283.556,305.487 L283.049,304.039 L284.129,303.894 L282.556,300.279 Z"/><path fill="#141413" stroke="#fffffe" d="M260.937,348.065 L280.171,353.883 L279.956,355.348 L259.858,351.711 L260.937,348.065 Z"/></svg>
